<svg width="26" height="27" viewBox="0 0 26 27" fill="none" xmlns="http://www.w3.org/2000/svg">
<g clip-path="url(#clip0_3_28)">
<path d="M9.74999 12.4167C12.1432 12.4167 14.0833 10.4766 14.0833 8.08333C14.0833 5.6901 12.1432 3.75 9.74999 3.75C7.35676 3.75 5.41666 5.6901 5.41666 8.08333C5.41666 10.4766 7.35676 12.4167 9.74999 12.4167Z" stroke="black" stroke-width="1.625" stroke-linecap="round" stroke-linejoin="round"/>
<path d="M3.25 23.25V21.0833C3.25 19.9341 3.70655 18.8319 4.5192 18.0192C5.33186 17.2065 6.43406 16.75 7.58333 16.75H11.9167C13.0659 16.75 14.1681 17.2065 14.9808 18.0192C15.7935 18.8319 16.25 19.9341 16.25 21.0833V23.25" stroke="black" stroke-width="1.625" stroke-linecap="round" stroke-linejoin="round"/>
<path d="M20.5833 9.16667V15.6667M17.3333 12.4167H23.8333H17.3333Z" stroke="black" stroke-width="1.625" stroke-linecap="round" stroke-linejoin="round"/>
</g>
<defs>
<clipPath id="clip0_3_28">
<rect width="26" height="26" fill="black" transform="translate(0 0.5)"/>
</clipPath>
</defs>
</svg>
