<svg width="30" height="34" viewBox="0 0 30 34" fill="none" xmlns="http://www.w3.org/2000/svg">
<g clip-path="url(#clip0_3_6)" filter="url(#filter0_d_3_6)">
<path d="M15 16.3333C16.933 16.3333 18.5 14.7663 18.5 12.8333C18.5 10.9003 16.933 9.33333 15 9.33333C13.067 9.33333 11.5 10.9003 11.5 12.8333C11.5 14.7663 13.067 16.3333 15 16.3333Z" stroke="#291F68" stroke-width="1.75" stroke-linecap="round" stroke-linejoin="round"/>
<path d="M21.5998 19.4332L16.6497 24.3833C16.2121 24.8204 15.619 25.0659 15.0006 25.0659C14.3821 25.0659 13.789 24.8204 13.3515 24.3833L8.40016 19.4332C7.09492 18.1279 6.20605 16.4648 5.84596 14.6543C5.48587 12.8439 5.67073 10.9673 6.37716 9.26185C7.0836 7.55644 8.27987 6.0988 9.81472 5.07326C11.3496 4.04772 13.1541 3.50034 15 3.50034C16.8459 3.50034 18.6504 4.04772 20.1853 5.07326C21.7201 6.0988 22.9164 7.55644 23.6228 9.26185C24.3293 10.9673 24.5141 12.8439 24.154 14.6543C23.7939 16.4648 22.9051 18.1279 21.5998 19.4332V19.4332Z" stroke="#291F68" stroke-width="1.75" stroke-linecap="round" stroke-linejoin="round"/>
</g>
<defs>
<filter id="filter0_d_3_6" x="-3" y="0" width="36" height="36" filterUnits="userSpaceOnUse" color-interpolation-filters="sRGB">
<feFlood flood-opacity="0" result="BackgroundImageFix"/>
<feColorMatrix in="SourceAlpha" type="matrix" values="0 0 0 0 0 0 0 0 0 0 0 0 0 0 0 0 0 0 127 0" result="hardAlpha"/>
<feOffset dy="4"/>
<feGaussianBlur stdDeviation="2"/>
<feComposite in2="hardAlpha" operator="out"/>
<feColorMatrix type="matrix" values="0 0 0 0 0 0 0 0 0 0 0 0 0 0 0 0 0 0 0.25 0"/>
<feBlend mode="normal" in2="BackgroundImageFix" result="effect1_dropShadow_3_6"/>
<feBlend mode="normal" in="SourceGraphic" in2="effect1_dropShadow_3_6" result="shape"/>
</filter>
<clipPath id="clip0_3_6">
<rect width="28" height="28" fill="white" transform="translate(1)"/>
</clipPath>
</defs>
</svg>
